<?xml version="1.0" encoding="utf-8"?>
<!-- Generator: Adobe Illustrator 16.0.4, SVG Export Plug-In . SVG Version: 6.00 Build 0)  -->
<!DOCTYPE svg PUBLIC "-//W3C//DTD SVG 1.1//EN" "http://www.w3.org/Graphics/SVG/1.1/DTD/svg11.dtd">
<svg version="1.1" id="Layer_1" xmlns="http://www.w3.org/2000/svg" xmlns:xlink="http://www.w3.org/1999/xlink" x="0px" y="0px"
	 width="26px" height="26px" viewBox="0 0 26 26" enable-background="new 0 0 26 26" xml:space="preserve">
<g>
	<g>
		<path fill="#333333" d="M15.994,6.844c0.059,0.041,0.098,0.101,0.152,0.146h7.15c0-2.167-1.186-1.45-1.186-1.942
			c0-1.925-1.316-3.61-3.271-4.205c-0.305-0.092-0.941,3.463-0.941,3.463V0.594c0-0.305-0.238-0.551-0.515-0.551h-0.771
			c-0.275,0-0.514,0.246-0.514,0.551v3.711c0,0-0.643-3.555-0.947-3.46c-1,0.305-1.826,0.897-2.401,1.659
			C14.441,3.436,15.632,5.009,15.994,6.844z"/>
	</g>
	<g>
		<path fill="#333333" d="M19.896,14.771c-0.131-0.043-0.946-0.41-0.437-1.962h-0.008c1.202-1.237,2.046-2.063,2.046-4.735h-4.539
			c0.225,0.529,0.339,1.167,0.339,1.915c0,1.048-0.806,1.908-1.833,1.993c-0.16,2.139-0.892,3.349-1.738,4.327
			c2.484,0.979,6.188,2.946,6.188,5.979v0.498c3.243-0.241,6-0.983,6-2.84c0-0.473,0-0.185,0-0.658
			C25.914,17.477,22.729,15.71,19.896,14.771z"/>
	</g>
</g>
<g>
	<path fill="#333333" d="M17.914,22.287c0,0.475,0,0.188,0,0.658c0,2.395-4.585,2.938-8.888,2.938c-4.297,0-8.94-0.545-8.94-2.938
		c0-0.473,0-0.185,0-0.658c0-1.758,3.169-3.538,5.87-4.516c0.194-0.071,1.128-0.58,0.605-1.946
		c-1.209-1.235-2.032-2.052-2.032-4.751h8.969c0,2.672-0.844,3.498-2.046,4.734h0.008c-0.511,1.553,0.306,1.92,0.436,1.963
		C14.729,18.71,17.914,20.477,17.914,22.287z M14.111,8.047c0-1.925-1.315-3.61-3.271-4.205C10.537,3.75,9.899,7.305,9.899,7.305
		V3.594c0-0.305-0.238-0.551-0.514-0.551H8.614C8.339,3.043,8.1,3.289,8.1,3.594v3.711c0,0-0.642-3.555-0.947-3.46
		C5.203,4.44,3.888,6.124,3.888,8.047c0,0.492-1.186-0.205-1.186,1.942h12.596C15.298,7.822,14.111,8.539,14.111,8.047z"/>
</g>
</svg>
